<?xml version="1.0" encoding="UTF-8" standalone="no"?>
<svg id="Layer_1" xmlns="http://www.w3.org/2000/svg" xml:space="preserve" viewBox="0 0 206 192.8" version="1.1" y="0px" x="0px" xmlns:xlink="http://www.w3.org/1999/xlink" enable-background="new 0 0 206 192.8">
<g fill="#B38F55">
	<polygon points="69.6 180.1 63.4 180.1 63.4 183.8 68.9 183.8 68.9 184.9 63.4 184.9 63.4 188.7 69.6 188.7 69.6 189.9 62.2 189.9 62.2 179 69.6 179"/>
	<path d="m77.8 183.8c2.3 0.5 3.3 1.4 3.3 3.1 0 1.9-1.5 3.1-3.5 3.1-1.6 0-2.9-0.6-4.2-1.7l0.7-0.9c1.1 1 2.1 1.5 3.5 1.5s2.3-0.8 2.3-1.9c0-1-0.5-1.6-2.6-2.1-2.3-0.5-3.4-1.3-3.4-3.1 0-1.7 1.4-3 3.3-3 1.5 0 2.5 0.4 3.6 1.3l-0.7 0.9c-0.9-0.8-1.9-1.2-2.9-1.2-1.3 0-2.2 0.8-2.2 1.8 0 1.2 0.5 1.7 2.8 2.2"/>
	<polygon points="89.4 189.9 88.2 189.9 88.2 180.1 84.8 180.1 84.8 179 92.8 179 92.8 180.1 89.4 180.1"/>
	<rect y="188.2" x="95.3" height="1.6" width="1.3"/>
	<polygon points="109.2 178.9 110 178.9 110 189.9 108.9 189.9 108.9 180.2 107 180.8 106.7 179.8"/>
	<path d="m118.4 179.9c-1.3 0-2.3 0.8-2.3 1.9 0 1.2 1 2 2.3 2s2.3-0.8 2.3-2c0-1.1-1-1.9-2.3-1.9m0 4.9c-1.5 0-2.7 0.9-2.7 2.1 0 1.1 1 2 2.7 2s2.7-0.9 2.7-2c-0.1-1.2-1.2-2.1-2.7-2.1m0 5.2c-2.2 0-3.8-1.3-3.8-3.1 0-1.3 0.9-2.2 2.1-2.7-0.9-0.5-1.7-1.2-1.7-2.5 0-1.7 1.6-2.9 3.5-2.9s3.5 1.2 3.5 2.9c0 1.3-0.8 2-1.7 2.5 1.2 0.5 2.1 1.4 2.1 2.7-0.2 1.9-1.8 3.1-4 3.1"/>
	<path d="m130 179.9c-1.3 0-2.3 0.8-2.3 1.9 0 1.2 1 2 2.3 2s2.3-0.8 2.3-2c0-1.1-1-1.9-2.3-1.9m0 4.9c-1.5 0-2.7 0.9-2.7 2.1 0 1.1 1 2 2.7 2s2.7-0.9 2.7-2c-0.1-1.2-1.3-2.1-2.7-2.1m0 5.2c-2.2 0-3.8-1.3-3.8-3.1 0-1.3 0.9-2.2 2.1-2.7-0.9-0.5-1.7-1.2-1.7-2.5 0-1.7 1.6-2.9 3.5-2.9s3.5 1.2 3.5 2.9c0 1.3-0.8 2-1.7 2.5 1.2 0.5 2.1 1.4 2.1 2.7-0.2 1.9-1.9 3.1-4 3.1"/>
	<path d="m141.5 179.9c-1.3 0-2.3 0.8-2.3 1.9 0 1.2 1 2 2.3 2s2.3-0.8 2.3-2c0.1-1.1-0.9-1.9-2.3-1.9m0 4.9c-1.5 0-2.7 0.9-2.7 2.1 0 1.1 1 2 2.7 2s2.7-0.9 2.7-2c0-1.2-1.2-2.1-2.7-2.1m0 5.2c-2.2 0-3.8-1.3-3.8-3.1 0-1.3 0.9-2.2 2.1-2.7-0.9-0.5-1.7-1.2-1.7-2.5 0-1.7 1.6-2.9 3.5-2.9s3.5 1.2 3.5 2.9c0 1.3-0.8 2-1.7 2.5 1.2 0.5 2.1 1.4 2.1 2.7-0.1 1.9-1.8 3.1-4 3.1"/>
	<path d="m12.1 144.4c-1.3 0-2.9-0.2-4.1-0.4v-13.4h5.2c5.9 0 9.7 1.1 9.7 6.2 0 6.2-6.1 7.6-10.8 7.6m3.4-15.5h-12.6s0.4 2.1 0.4 15.1-0.4 16.1-0.4 16.1h5s-0.1-1.5-0.1-7 0.2-7.2 0.2-7.2c1.5 0.1 2.9 0.1 4.7 0.1 5.5 0 15.3-1.5 15.3-9.5 0-7.5-9-7.6-12.5-7.6"/>
	<path d="m39 146.3l5.5-11.3 5.4 11.3h-10.9zm17.5 13.8h5.8s-1.8-2.4-8.3-15.6c-6.6-13.2-7.6-15.6-7.6-15.6h-1.2l-16.6 31.2h3.6l5.8-11.8h12.9l5.6 11.8z"/>
	<path d="m74.3 143.2v-2.5-9.8c1.3-0.1 3-0.1 5.4-0.1 3.6 0 8.2 1.2 8.2 5.9 0 5.3-5.8 6.8-10.2 6.8-1.3-0.1-2.5-0.1-3.4-0.3m7.6 1.6c4.1-0.5 10.9-2.9 10.9-8.7 0-5.5-5.2-7.2-11.3-7.2h-12.2s0.4 2.1 0.4 15.1-0.4 16.1-0.4 16.1h5v-2.4-12.7l1.9 0.1c4.5 4.8 11.4 12.2 13.9 15h6.6l-0.2-0.1c-3-2.8-11.8-12.3-14.6-15.2"/>
	<path d="m180.6 143.1v-2.5-9.8c1.3-0.1 3-0.1 5.4-0.1 3.6 0 8.2 1.2 8.2 5.9 0 5.3-5.8 6.8-10.2 6.8-1.2-0.1-2.4-0.2-3.4-0.3m7.7 1.6c4.1-0.5 10.9-2.9 10.9-8.7 0-5.5-5.2-7.2-11.3-7.2h-12.3s0.4 2.1 0.4 15.1-0.4 16.1-0.4 16.1h5v-2.4-12.6l1.9 0.1c4.5 4.8 11.4 12.2 13.9 14.9h6.6l-0.2-0.1c-3-2.8-11.7-12.3-14.5-15.2"/>
	<path d="m164.9 157.8h-14.5l-0.1-13.4h13v-2.1h-13v-5.6c0-2.2 0.1-3.7 0.2-5.6l14.1 0.1v-2.2-0.1h-19.3v31.2h19.6v-0.1-2.2z"/>
	<path d="m100.6 85.9l-4 4.7c0 0.9-0.1 1.8-0.1 2.6l4.2-4.8v-2.5z"/>
	<path d="m100.6 89.7l-4.2 4.8c-0.1 1-0.1 1.8-0.1 2.6l4.3-5v-2.4z"/>
	<path d="m100.7 82.3l-3.9 4.5c0 0.8-0.1 1.6-0.1 2.5l4-4.6v-2.4z"/>
	<path d="m106.3 102.8v-0.1l-5.1-5.9-5.1 5.9v0.1c0 0.6 0.5 1 1.5 1h7.2c1 0 1.5-0.4 1.5-1"/>
	<path d="m96.2 101.1l4.4-5.1v-2.5l-4.3 5c-0.1 1-0.1 1.8-0.1 2.6"/>
	<path d="m100.7 74.7l-3.6 4.2c0 0.8-0.1 1.5-0.1 2.4l3.7-4.3v-2.3z"/>
	<path d="m100.7 78.5l-3.8 4.3c0 0.8-0.1 1.6-0.1 2.4l3.9-4.5v-2.2z"/>
	<path d="m105.4 78.9l-3.6-4.2v2.3l3.7 4.3c-0.1-0.8-0.1-1.6-0.1-2.4"/>
	<path d="m106.1 94.6l-4.2-4.9v2.5l4.3 5c-0.1-0.8-0.1-1.7-0.1-2.6"/>
	<path d="m105.5 82.9l-3.8-4.4v2.3l3.9 4.5c0-0.8 0-1.6-0.1-2.4"/>
	<path d="m106.3 101.1v-2.6l-4.4-5v2.5l4.4 5.1z"/>
	<path d="m106 93.2c-0.1-0.8-0.1-1.7-0.1-2.6l-4.1-4.7v2.5l4.2 4.8z"/>
	<path d="m105.8 89.3c0-0.8-0.1-1.6-0.1-2.5l-3.9-4.5v2.4l4 4.6z"/>
	<path d="m99.6 27.6v-2.1 2.1c-0.2 11.6-0.5 30.7-0.8 33.7-0.4 4.3-1.5 6.5-1.5 10.6 0 0.5-0.1 1.5-0.1 2.8-40.9-0.6-71.8-11.2-71.8-23.5 0-12.6 32.2-23.3 74.2-23.6m3.3 0c42 0.3 74.1 11 74.1 23.6 0 12.4-30.9 22.9-71.8 23.5-0.1-1.3-0.1-2.2-0.1-2.8 0-4.1-1-6.3-1.5-10.6-0.2-3-0.5-22-0.7-33.7v-2 2zm-5.7 49.7l3.5-4.1 0.5-65.5h0.1l0.4 65.5 3.6 4.1c43.6-0.7 77.2-11.9 77.2-26.1 0-14.5-34.9-25.9-79.6-26.1 0-3.9-0.1-6.4-0.1-6.4s1.7-0.8 1.8-2.1c0.1-1.3-1.3-9.3-2-11.4s-0.9-2.4-1.3-2.4c-0.5 0-0.7 0.3-1.3 2.4-0.7 2.1-2.1 10.1-2 11.4s1.8 2.1 1.8 2.1 0 2.5-0.1 6.4c-44.9 0.3-79.7 11.7-79.7 26.1 0 14.2 33.5 25.5 77.2 26.1"/>
	<polygon points="118 142.5 134.6 128.9 130.3 128.9 113.1 143.6 129.5 160.1 136 160.1"/>
	<path d="m106.7 128.8s0.4 2.1 0.4 15.1-0.4 16.1-0.4 16.1h5.4v-31.2-0.1h-5.4z"/>
</g>
</svg>
